<svg width="40" height="27" viewBox="0 0 40 27" fill="none" xmlns="http://www.w3.org/2000/svg">
<path fill-rule="evenodd" clip-rule="evenodd" d="M1 0H0V1V9.47089H2V2H9.47089V0H1ZM39.7932 1V0H38.7932H30.3223L30.3223 2L37.7932 2V9.47089H39.7932V1ZM0 26.1095H1H9.47089V24.1095H2V16.6386H0V25.1095V26.1095ZM39.7932 25.1095V26.1095H38.7932H30.3223L30.3223 24.1095H37.7932V16.6386L39.7932 16.6386V25.1095Z" fill="#F2C94C"/>
<path fill-rule="evenodd" clip-rule="evenodd" d="M1 0H0V1V9.47089H2V2H9.47089V0H1ZM39.7932 1V0H38.7932H30.3223L30.3223 2L37.7932 2V9.47089H39.7932V1ZM0 26.1095H1H9.47089V24.1095H2V16.6386H0V25.1095V26.1095ZM39.7932 25.1095V26.1095H38.7932H30.3223L30.3223 24.1095H37.7932V16.6386L39.7932 16.6386V25.1095Z" fill="url(#paint0_linear)"/>
<path d="M19.7081 4.90961C21.4662 4.90961 23.0964 5.4608 24.4373 6.4008L23.1658 7.6802C22.1635 7.04817 20.9782 6.68277 19.7081 6.68277C18.3053 6.68277 17.0059 7.12855 15.9423 7.88701L14.6821 6.61894C16.0759 5.54663 17.8181 4.90961 19.7081 4.90961Z" fill="#F2C94C"/>
<path d="M19.7081 4.90961C21.4662 4.90961 23.0964 5.4608 24.4373 6.4008L23.1658 7.6802C22.1635 7.04817 20.9782 6.68277 19.7081 6.68277C18.3053 6.68277 17.0059 7.12855 15.9423 7.88701L14.6821 6.61894C16.0759 5.54663 17.8181 4.90961 19.7081 4.90961Z" fill="url(#paint1_linear)"/>
<path d="M13.1245 8.18621C12.0588 9.58869 11.4257 11.3417 11.4257 13.2435C11.4257 15.0125 11.9735 16.6528 12.9077 18.002L14.1792 16.7226C13.5511 15.7141 13.1879 14.5215 13.1879 13.2435C13.1879 11.8319 13.631 10.5245 14.3847 9.45428L13.1245 8.18621Z" fill="#F2C94C"/>
<path d="M13.1245 8.18621C12.0588 9.58869 11.4257 11.3417 11.4257 13.2435C11.4257 15.0125 11.9735 16.6528 12.9077 18.002L14.1792 16.7226C13.5511 15.7141 13.1879 14.5215 13.1879 13.2435C13.1879 11.8319 13.631 10.5245 14.3847 9.45428L13.1245 8.18621Z" fill="url(#paint2_linear)"/>
<path d="M23.4739 18.6C22.4103 19.3584 21.111 19.8042 19.7081 19.8042C18.1736 19.8042 16.7628 19.2708 15.6491 18.3782L14.3967 19.6383C15.8346 20.8488 17.6868 21.5774 19.7081 21.5774C21.5982 21.5774 23.3404 20.9403 24.7342 19.868L23.4739 18.6Z" fill="#F2C94C"/>
<path d="M23.4739 18.6C22.4103 19.3584 21.111 19.8042 19.7081 19.8042C18.1736 19.8042 16.7628 19.2708 15.6491 18.3782L14.3967 19.6383C15.8346 20.8488 17.6868 21.5774 19.7081 21.5774C21.5982 21.5774 23.3404 20.9403 24.7342 19.868L23.4739 18.6Z" fill="url(#paint3_linear)"/>
<path d="M26.2918 18.3008C27.3575 16.8983 27.9906 15.1453 27.9906 13.2435C27.9906 11.2096 27.2664 9.34583 26.0635 7.89904L24.8111 9.1592C25.6982 10.2799 26.2283 11.6994 26.2283 13.2435C26.2283 14.655 25.7853 15.9625 25.0315 17.0327L26.2918 18.3008Z" fill="#F2C94C"/>
<path d="M26.2918 18.3008C27.3575 16.8983 27.9906 15.1453 27.9906 13.2435C27.9906 11.2096 27.2664 9.34583 26.0635 7.89904L24.8111 9.1592C25.6982 10.2799 26.2283 11.6994 26.2283 13.2435C26.2283 14.655 25.7853 15.9625 25.0315 17.0327L26.2918 18.3008Z" fill="url(#paint4_linear)"/>
<path d="M21.9109 13.2435C21.9109 14.4676 20.9247 15.4599 19.7081 15.4599C18.4916 15.4599 17.5054 14.4676 17.5054 13.2435C17.5054 12.0194 18.4916 11.027 19.7081 11.027C20.9247 11.027 21.9109 12.0194 21.9109 13.2435Z" fill="#F2C94C"/>
<path d="M21.9109 13.2435C21.9109 14.4676 20.9247 15.4599 19.7081 15.4599C18.4916 15.4599 17.5054 14.4676 17.5054 13.2435C17.5054 12.0194 18.4916 11.027 19.7081 11.027C20.9247 11.027 21.9109 12.0194 21.9109 13.2435Z" fill="url(#paint5_linear)"/>
<defs>
<linearGradient id="paint0_linear" x1="0" y1="0" x2="27.6555" y2="35.7392" gradientUnits="userSpaceOnUse">
<stop stop-color="white" stop-opacity="0.5"/>
<stop offset="1" stop-color="white" stop-opacity="0.1"/>
</linearGradient>
<linearGradient id="paint1_linear" x1="11.4257" y1="4.90961" x2="29.4001" y2="20.0562" gradientUnits="userSpaceOnUse">
<stop stop-color="white" stop-opacity="0.5"/>
<stop offset="1" stop-color="white" stop-opacity="0.1"/>
</linearGradient>
<linearGradient id="paint2_linear" x1="11.4257" y1="4.90961" x2="29.4001" y2="20.0562" gradientUnits="userSpaceOnUse">
<stop stop-color="white" stop-opacity="0.5"/>
<stop offset="1" stop-color="white" stop-opacity="0.1"/>
</linearGradient>
<linearGradient id="paint3_linear" x1="11.4257" y1="4.90961" x2="29.4001" y2="20.0562" gradientUnits="userSpaceOnUse">
<stop stop-color="white" stop-opacity="0.5"/>
<stop offset="1" stop-color="white" stop-opacity="0.1"/>
</linearGradient>
<linearGradient id="paint4_linear" x1="11.4257" y1="4.90961" x2="29.4001" y2="20.0562" gradientUnits="userSpaceOnUse">
<stop stop-color="white" stop-opacity="0.5"/>
<stop offset="1" stop-color="white" stop-opacity="0.1"/>
</linearGradient>
<linearGradient id="paint5_linear" x1="11.4257" y1="4.90961" x2="29.4001" y2="20.0562" gradientUnits="userSpaceOnUse">
<stop stop-color="white" stop-opacity="0.5"/>
<stop offset="1" stop-color="white" stop-opacity="0.1"/>
</linearGradient>
</defs>
</svg>
