<svg width="138" height="20" viewBox="0 0 138 20" class="logo-svg" fill="none" xmlns="http://www.w3.org/2000/svg">
<path  clall="logo-path" d="M7.45 0.799999H0.56V19H4.72V13.28H7.45C11.038 13.28 13.82 10.498 13.82 7.04C13.82 3.582 11.038 0.799999 7.45 0.799999ZM7.45 9.38H4.72V4.7H7.45C8.724 4.7 9.66 5.714 9.66 7.04C9.66 8.366 8.724 9.38 7.45 9.38ZM22.8839 5.636C21.1679 5.636 19.8679 6.26 19.1659 7.222V0.799999H15.2659V19H19.1659V11.902C19.1659 10.056 20.1539 9.224 21.5839 9.224C22.8319 9.224 23.8459 9.978 23.8459 11.59V19H27.7459V11.018C27.7459 7.508 25.5099 5.636 22.8839 5.636ZM36.1641 19.364C39.9861 19.364 43.0541 16.374 43.0541 12.5C43.0541 8.626 39.9861 5.636 36.1641 5.636C32.3421 5.636 29.2741 8.626 29.2741 12.5C29.2741 16.374 32.3421 19.364 36.1641 19.364ZM36.1641 15.568C34.4741 15.568 33.1741 14.346 33.1741 12.5C33.1741 10.654 34.4741 9.432 36.1641 9.432C37.8541 9.432 39.1541 10.654 39.1541 12.5C39.1541 14.346 37.8541 15.568 36.1641 15.568ZM52.1242 9.744V6H49.4462V2.36L45.5462 3.53V6H43.4662V9.744H45.5462V14.346C45.5462 17.986 47.0282 19.52 52.1242 19V15.464C50.4082 15.568 49.4462 15.464 49.4462 14.346V9.744H52.1242ZM59.8184 19.364C63.6404 19.364 66.7084 16.374 66.7084 12.5C66.7084 8.626 63.6404 5.636 59.8184 5.636C55.9964 5.636 52.9284 8.626 52.9284 12.5C52.9284 16.374 55.9964 19.364 59.8184 19.364ZM59.8184 15.568C58.1284 15.568 56.8284 14.346 56.8284 12.5C56.8284 10.654 58.1284 9.432 59.8184 9.432C61.5084 9.432 62.8084 10.654 62.8084 12.5C62.8084 14.346 61.5084 15.568 59.8184 15.568ZM86.5624 8.86H77.4364V12.5H82.2984C81.6484 14.242 80.0624 15.308 77.6444 15.308C74.1084 15.308 71.9244 13.046 71.9244 9.952C71.9244 6.754 74.2124 4.492 77.2804 4.492C79.3344 4.492 80.9724 5.428 81.7264 6.624L85.2624 4.596C83.7284 2.152 80.7904 0.435999 77.3064 0.435999C71.9504 0.435999 67.7644 4.648 67.7644 9.926C67.7644 15.152 71.8724 19.364 77.5924 19.364C82.6884 19.364 86.5624 15.984 86.5624 10.42V8.86ZM96.8026 6V13.098C96.8026 14.944 95.8146 15.776 94.3846 15.776C93.1366 15.776 92.1226 15.022 92.1226 13.41V6H88.2226V13.982C88.2226 17.492 90.4586 19.364 93.0846 19.364C94.8006 19.364 96.1006 18.74 96.8026 17.778V19H100.703V6H96.8026ZM105.013 4.856C106.287 4.856 107.353 3.79 107.353 2.516C107.353 1.242 106.287 0.175999 105.013 0.175999C103.739 0.175999 102.673 1.242 102.673 2.516C102.673 3.79 103.739 4.856 105.013 4.856ZM103.063 19H106.963V6H103.063V19ZM118.755 0.799999V7.222C117.897 6.234 116.623 5.636 114.881 5.636C111.475 5.636 108.667 8.626 108.667 12.5C108.667 16.374 111.475 19.364 114.881 19.364C116.623 19.364 117.897 18.766 118.755 17.778V19H122.655V0.799999H118.755ZM115.661 15.672C113.867 15.672 112.567 14.45 112.567 12.5C112.567 10.55 113.867 9.328 115.661 9.328C117.455 9.328 118.755 10.55 118.755 12.5C118.755 14.45 117.455 15.672 115.661 15.672ZM128.5 14.06H137.73C137.834 13.566 137.886 13.046 137.886 12.5C137.886 8.574 135.078 5.636 131.282 5.636C127.174 5.636 124.366 8.626 124.366 12.5C124.366 16.374 127.122 19.364 131.568 19.364C134.038 19.364 135.962 18.454 137.236 16.686L134.116 14.892C133.596 15.464 132.686 15.88 131.62 15.88C130.19 15.88 128.994 15.412 128.5 14.06ZM128.422 11.148C128.786 9.822 129.774 9.094 131.256 9.094C132.426 9.094 133.596 9.64 134.012 11.148H128.422Z" fill="white"/>
</svg>
